<svg id="svg5" xmlns="http://www.w3.org/2000/svg" viewBox="0 0 192 192"><defs><style>.cls-1{fill:#34a2d6;}.cls-2{fill:#fff;}</style></defs><g id="layer1"><path id="rect12437" class="cls-1" d="M25.75,0h140.5C180.47,0,192,10.46,192,23.36V168.64c0,12.9-11.53,23.36-25.75,23.36H25.75C11.53,192,0,181.54,0,168.64V23.36C0,10.46,11.53,0,25.75,0Z" transform="translate(0)"/><path id="rect9470" class="cls-2" d="M90.51,28.71a261.87,261.87,0,0,0-35.42,2.8l0,3.08c8.86-1.22,44.61-5.5,65.29,1.35C151.51,46.23,150,83.61,150,93.25c0,3.07,1.36,17.62-6.24,31.8,9.3-15.09,7.76-31.49,7.76-34.78,0-9.71,1.52-47.38-29.42-57.74C113.24,29.56,101.59,28.66,90.51,28.71ZM55.12,34.59c-1.31.19-2.06.33-2.06.33v2.71c.6-.08,1.27-.19,2.06-.29Zm0,2.75,0,4.07C69.21,39.88,96.3,38,113.29,43.59c31.1,10.29,29.6,47.68,29.6,57.31,0,3.26,1.55,19.53-7.76,34.49a47.61,47.61,0,0,0,4.8-5c-.79,1.3-1.68,2.58-2.64,3.86a46.28,46.28,0,0,0,6.32-8.94,47,47,0,0,1-3.62,5c9-14.83,7.47-30.77,7.47-34,0-9.64,1.52-47-29.58-57.32C98.79,32.69,66.9,35.85,55.12,37.34Zm80,98a49.49,49.49,0,0,1-5.3,4.16c9-14.84,7.46-30.83,7.46-34.05,0-9.64,1.52-47-29.58-57.31C92.78,43.25,70,44.12,55.17,45.45l.43,96.41s44.76,14.84,70.55,0c1.28-.74,2.49-1.49,3.65-2.28-.56.92-1.17,1.83-1.81,2.74a51.47,51.47,0,0,0,5.06-3.89c.75-1,1.45-2,2.08-3Zm-2.08,3c-.71,1-1.49,1.92-2.32,2.87a47.15,47.15,0,0,0,6.54-7,50,50,0,0,1-4.22,4.11Zm-2.32,2.87a48.67,48.67,0,0,1-4.91,3.81c.77-.92,1.5-1.85,2.17-2.79-1.11.74-2.27,1.46-3.5,2.15-25.92,14.73-70.92,0-70.92,0l-.46-98.84-2.53.27L51,147.53s45,14.73,70.93,0c1.34-.76,2.61-1.54,3.81-2.36a45.44,45.44,0,0,1-3.63,3.92,48.68,48.68,0,0,0,8.59-7.79ZM50.58,45.9l0-3.95c-2.86.37-4.58.62-4.58.62l0,3.84c1.34-.16,2.86-.32,4.58-.51ZM46,46.41c-3.47.43-5.61.75-5.61.75l.51,109.58s45,14.73,70.9,0a52,52,0,0,0,10.26-7.57,54.59,54.59,0,0,1-4.69,3c-25.92,14.73-70.89,0-70.89,0ZM50.55,42l2.54-.32,0-4L50.53,38Zm2.54-.32,0,4,2.06-.18,0-4-2,.22Z" transform="translate(0)"/></g></svg>